Coordinates
version=1
nRows=34
nColumns=33
inDegrees=yes

Units are S.I. units (second, meters, Newtons, ...)
Angles are in degrees.

endheader
time	ground_thorax_rot_x	ground_thorax_rot_y	ground_thorax_rot_z	ground_thorax_tx	ground_thorax_ty	ground_thorax_tz	clav_prot_r	clav_elev_r	scapula_abduction_r	scapula_elevation_r	scapula_upward_rot_r	scapula_winging_r	shoulder_elv_r	plane_of_elev_r	axial_rot_r	elbow_flexion_r	pro_sup_r	wrist_flex_r	wrist_dev_r	clav_prot_l	clav_elev_l	scapula_abduction_l	scapula_elevation_l	scapula_upward_rot_l	scapula_winging_l	shoulder_elv_l	plane_of_elev_l	axial_rot_l	elbow_flexion_l	pro_sup_l	wrist_flex_l	wrist_dev_l	
4.4400	-39.817410	-9.551035	16.520947	-175.414794	813.369011	-1.728418	9.170885	-45.000000	42.047320	-45.000000	-34.344844	3503.053491	-1367.368316	32.394790	65.884967	1822.888048	195.317702	9.994875	4.781403	16.832613	39.695302	-41.084392	-45.000000	-40.858273	-2796.705500	790.992083	27.734760	-0.645245	1448.827945	18.156725	9.230992	-21.500320	
4.4500	-39.880668	-9.497221	16.395059	-172.189197	812.784970	-1.592433	9.160466	-45.000000	42.257069	-45.000000	-33.603867	3503.251718	-1367.544659	32.318601	66.200041	1822.743150	196.672788	9.863492	4.720691	16.872408	39.873168	-41.265904	-45.000000	-40.246273	-2796.814634	790.851485	27.830796	-0.211336	1448.818538	18.117912	9.460419	-21.389494	
4.4600	-39.954850	-9.457082	16.261827	-168.920510	812.146261	-1.466002	9.149036	-45.000000	42.463591	-45.000000	-32.884425	3503.453707	-1367.731409	32.242411	66.537108	1822.598461	197.993954	9.733238	4.661202	16.920033	40.050971	-41.455640	-44.999999	-39.645707	-2796.931573	790.709680	27.936917	0.294532	1448.790564	18.213376	9.681529	-21.280820	
4.4700	-40.038791	-9.430471	16.120882	-165.618797	811.453879	-1.355657	9.138546	-45.000000	42.671631	-45.000000	-32.190562	3503.661103	-1367.928432	32.164921	66.887219	1822.452647	199.286576	9.604855	4.606052	16.966608	40.228226	-41.649744	-44.999999	-39.055932	-2797.052795	790.563995	28.051993	0.847948	1448.745139	18.427181	9.896042	-21.175827	
4.4800	-40.132812	-9.409563	15.967502	-162.294123	810.710715	-1.267171	9.126738	-45.000000	42.879292	-45.000000	-31.507767	3503.872447	-1368.135352	32.085969	67.246431	1822.303374	200.563822	9.475808	4.548606	17.022166	40.406137	-41.852093	-44.999998	-38.478857	-2797.180226	790.418711	28.169311	1.427670	1448.682572	18.736616	10.097080	-21.073306	
4.4900	-40.236433	-9.393129	15.799780	-158.955703	809.921679	-1.205387	9.112737	-45.000000	43.089355	-45.000000	-30.827943	3504.087097	-1368.352840	32.003345	67.609225	1822.151238	201.838799	9.344821	4.490396	17.088437	40.586622	-42.063398	-44.999997	-37.908306	-2797.311062	790.270247	28.281917	2.013622	1448.606060	19.119639	10.282531	-20.973847	
4.5000	-40.348410	-9.375669	15.614559	-155.610727	809.093157	-1.174443	9.094671	-45.000000	43.300051	-45.000000	-30.139502	3504.302969	-1368.580911	31.918047	67.974290	1821.993269	203.129142	9.210101	4.428205	17.173622	40.770057	-42.287572	-44.999995	-37.347118	-2797.445521	790.119807	28.384680	2.585519	1448.516923	19.555870	10.447169	-20.876538	
4.5100	-40.467564	-9.357124	15.412901	-152.264977	808.232812	-1.177407	9.074946	-45.000000	43.516573	-45.000000	-29.445553	3504.520242	-1368.819986	31.826926	68.337371	1821.830560	204.446497	9.072491	4.368356	17.267854	40.957651	-42.522235	-44.999991	-36.787763	-2797.577598	789.961080	28.475759	3.115449	1448.418910	20.028913	10.593792	-20.782478	
4.5200	-40.593921	-9.326662	15.186172	-148.923590	807.349104	-1.216018	9.053142	-45.000000	43.737479	-45.000000	-28.733685	3504.737450	-1369.070630	31.732382	68.696062	1821.659174	205.810058	8.929965	4.307174	17.373214	41.152685	-42.767143	-44.999983	-36.220758	-2797.711958	789.796789	28.548567	3.582905	1448.313695	20.526258	10.720419	-20.690972	
4.5300	-40.721960	-9.293901	14.944220	-145.591775	806.450899	-1.290394	9.032333	-45.000000	43.963977	-45.000000	-28.022149	3504.957193	-1369.326324	31.634331	69.049264	1821.478424	207.229766	8.785886	4.253392	17.476144	41.350791	-43.019335	-44.999970	-35.651525	-2797.839385	789.619997	28.604531	3.966095	1448.204563	21.037664	10.829608	-20.602680	
4.5400	-40.849326	-9.250638	14.680831	-142.275955	805.547067	-1.398977	9.011397	-45.000000	44.192421	-45.000000	-27.304528	3505.178850	-1369.585502	31.537180	69.393754	1821.282378	208.725630	8.639496	4.204641	17.576471	41.553026	-43.275643	-44.999946	-35.074783	-2797.965148	789.433563	28.641316	4.250869	1448.092289	21.557415	10.920994	-20.517008	
4.5500	-40.971870	-9.205866	14.408099	-138.984150	804.646161	-1.538600	8.991466	-45.000000	44.416374	-45.000000	-26.605528	3505.408415	-1369.842222	31.440550	69.726401	1821.072118	210.312246	8.494844	4.171044	17.661863	41.754310	-43.531016	-44.999904	-34.500308	-2798.081387	789.233815	28.667202	4.425627	1447.976001	22.082221	10.999570	-20.434520	
4.5600	-41.086740	-9.154854	14.126757	-135.726301	803.756020	-1.704672	8.971549	-45.000000	44.617434	-45.000000	-25.939311	3505.648919	-1370.093008	31.356616	70.044628	1820.839382	212.020406	8.354807	4.152757	17.722723	41.953031	-43.774937	-44.999828	-33.928361	-2798.196984	789.028489	28.685927	4.496722	1447.859033	22.613021	11.071078	-20.356799	
4.5700	-41.190936	-9.105324	13.854741	-132.514078	802.883506	-1.891524	8.942026	-45.000000	44.779208	-45.000000	-25.329625	3505.906887	-1370.331055	31.281815	70.340288	1820.587237	213.899058	8.223567	4.158221	17.767096	42.143816	-44.013457	-44.999692	-33.377675	-2798.306424	788.815267	28.702302	4.486910	1447.739176	23.152241	11.135639	-20.284489	
4.5800	-41.291320	-9.030886	13.569994	-129.360787	802.034197	-2.092851	8.883487	-45.000000	44.893471	-45.000000	-24.733405	3506.186240	-1370.558855	31.210403	70.598153	1820.306236	216.074426	8.096982	4.179917	17.821302	42.340705	-44.248199	-44.999448	-32.810406	-2798.425215	788.607183	28.703582	4.441737	1447.617020	23.709262	11.189914	-20.218594	
4.5900	-41.385788	-8.938396	13.282040	-126.280078	801.212170	-2.302432	8.791772	-45.000000	44.961996	-45.000000	-24.151414	3506.488423	-1370.772690	31.133926	70.789731	1819.992396	218.720717	7.981632	4.232382	17.893592	42.541632	-44.472444	-44.999011	-32.230999	-2798.556541	788.406973	28.694240	4.399763	1447.487523	24.296500	11.233349	-20.160733	
4.6000	-41.469270	-8.841827	13.005413	-123.285060	800.419859	-2.514715	8.685232	-45.000000	44.991869	-45.000000	-23.597305	3506.805837	-1370.968111	31.060282	70.837785	1819.630040	222.154438	7.903137	4.342077	17.963502	42.737034	-44.665540	-44.998229	-31.653126	-2798.703421	788.219002	28.691925	4.394094	1447.345786	24.928185	11.273837	-20.113563	
4.6100	-41.533348	-8.763933	12.761806	-120.387075	799.658101	-2.725506	8.573521	-45.000000	45.000000	-45.000000	-23.094078	3507.135144	-1371.136020	30.988213	70.632092	1819.207716	226.739422	7.889317	4.541791	18.025940	42.916450	-44.817169	-44.996827	-31.103948	-2798.862180	788.037432	28.708269	4.453745	1447.188712	25.612738	11.313633	-20.079366	
4.6200	-41.581021	-8.697000	12.541165	-117.594968	798.926353	-2.932229	8.464007	-45.000000	45.000000	-45.000000	-22.619314	3507.465313	-1371.274236	30.939192	69.852145	1818.664451	233.598744	8.021073	4.895543	18.074207	43.083829	-44.922989	-44.994315	-30.569348	-2799.037295	787.871502	28.744187	4.619482	1447.017463	26.379271	11.353438	-20.063356	
4.6300	-41.608855	-8.644718	12.346899	-114.914444	798.223197	-3.134063	8.361503	-45.000000	45.000000	-45.000000	-22.183797	3507.786400	-1371.380150	30.933915	68.301886	1817.963245	243.385352	8.345592	5.443668	18.102655	43.233362	-44.981756	-44.989822	-30.062138	-2799.231990	787.724122	28.799327	4.907267	1446.836320	27.229980	11.396020	-20.067920	
4.6400	-41.616688	-8.612007	12.187147	-112.348586	797.547068	-3.331142	8.288421	-45.000000	45.000000	-45.000000	-21.828867	3508.086813	-1371.413268	31.073964	64.601197	1816.850738	260.933753	9.240347	6.488236	18.053432	43.353490	-45.000000	-44.981754	-29.608738	-2799.433842	787.603946	28.892028	5.370774	1446.654092	28.302210	11.443918	-20.117040	
4.6500	-41.604834	-8.603322	12.074712	-109.899602	796.897129	-3.523890	8.238807	-45.000000	45.000000	-45.000000	-21.569101	3508.356832	-1371.391928	31.342226	59.188438	1815.438373	284.396609	10.578781	7.893240	17.964480	43.438326	-45.000000	-44.967356	-29.233780	-2799.637429	787.507193	29.001877	5.935947	1446.475760	29.456360	11.500924	-20.189743	
4.6600	-41.579383	-8.605093	11.999615	-107.568562	796.273630	-3.711357	8.209197	-45.000000	45.000000	-45.000000	-21.383414	3508.594669	-1371.330024	31.717994	52.455917	1813.821096	312.075740	12.263413	9.552736	17.845301	43.489689	-45.000000	-44.941414	-28.920838	-2799.831123	787.430451	29.114842	6.538426	1446.304890	30.592727	11.570004	-20.270018	
4.6700	-41.536392	-8.623500	11.967724	-105.355094	795.678084	-3.890233	8.191003	-45.000000	45.000000	-45.000000	-21.254594	3508.804255	-1371.280721	32.086804	46.244791	1812.364811	337.101291	13.807502	11.049107	17.736839	43.510518	-45.000000	-44.895364	-28.663193	-2800.008218	787.357633	29.214594	7.044440	1446.133507	31.461088	11.661327	-20.316471	
4.6800	-41.474781	-8.657876	11.972492	-103.255681	795.112897	-4.053587	8.188614	-45.000000	45.000000	-45.000000	-21.175112	3508.996603	-1371.236432	32.429185	40.748706	1811.111819	358.687519	15.177341	12.357460	17.612894	43.503575	-45.000000	-44.817932	-28.440386	-2800.156270	787.284960	29.305794	7.467577	1445.957298	32.093233	11.771868	-20.331332	
4.6900	-41.398169	-8.703116	12.000397	-101.265275	794.581287	-4.192086	8.183001	-45.000000	45.000000	-45.000000	-21.103966	3509.180909	-1371.240790	32.645460	37.373464	1810.328752	371.804863	15.993736	13.161898	17.519576	43.479595	-45.000000	-44.705021	-28.212287	-2800.270744	787.199708	29.380399	7.778024	1445.757883	32.378376	11.902009	-20.292483	
4.7000	-41.315134	-8.737166	12.015976	-99.377749	794.086867	-4.295085	8.163587	-45.000000	45.000000	-45.000000	-21.004720	3509.367272	-1371.277578	32.748941	35.767223	1809.923424	377.961427	16.356528	13.563894	17.434970	43.452880	-45.000000	-44.556519	-27.922157	-2800.356032	787.109279	29.437811	8.091823	1445.532139	32.477016	12.038485	-20.222336	
4.7100	-41.235372	-8.746716	11.998982	-97.589940	793.633907	-4.353624	8.121832	-45.000000	45.000000	-45.000000	-20.840766	3509.554722	-1371.349170	32.743585	35.642496	1809.820318	378.447404	16.335372	13.632342	17.372637	43.432057	-45.000000	-44.385049	-27.546236	-2800.415617	787.011197	29.497660	8.496161	1445.260113	32.513235	12.171605	-20.135644	
4.7200	-41.163348	-8.731193	11.942035	-95.903847	793.227351	-4.362110	8.067147	-45.000000	45.000000	-45.000000	-20.632237	3509.742962	-1371.405970	32.725103	35.495953	1809.715740	378.941516	16.333523	13.711864	17.290023	43.416812	-45.000000	-44.200285	-27.096516	-2800.459708	786.925472	29.569346	9.120900	1444.953599	32.730079	12.285182	-20.071050	
4.7300	-41.103694	-8.704219	11.859612	-94.329579	792.872997	-4.320554	8.005884	-45.000000	45.000000	-45.000000	-20.394789	3509.921140	-1371.460973	32.695751	35.347688	1809.615758	379.431905	16.340546	13.786137	17.206744	43.400585	-45.000000	-44.021929	-26.618816	-2800.491605	786.850357	29.663434	9.921541	1444.613639	33.104608	12.378786	-20.025569	
4.7400	-41.056984	-8.669731	11.757003	-92.882305	792.576811	-4.233416	7.940946	-45.000000	45.000000	-45.000000	-20.145031	3510.089964	-1371.510989	32.661407	35.211401	1809.519831	379.903725	16.354922	13.857278	17.121214	43.386740	-45.000000	-43.859859	-26.144919	-2800.525477	786.795544	29.761359	10.833657	1444.270347	33.604048	12.447074	-19.999012	
4.7500	-41.027520	-8.622476	11.632133	-91.576770	792.343632	-4.108247	7.869699	-45.000000	45.000000	-45.000000	-19.868790	3510.246471	-1371.565760	32.615430	35.083341	1809.428788	380.344548	16.375981	13.922459	17.053083	43.381437	-45.000000	-43.727111	-25.696359	-2800.568157	786.759335	29.860839	11.767809	1443.941246	34.190791	12.486332	-19.988970	
4.7600	-41.014616	-8.566220	11.489422	-90.423299	792.176794	-3.952909	7.794982	-45.000000	45.000000	-45.000000	-19.585022	3510.392120	-1371.621273	32.564079	34.972578	1809.346239	380.746070	16.402659	13.983219	16.998774	43.388216	-45.000000	-43.624058	-25.290403	-2800.623486	786.746049	29.944400	12.639579	1443.652026	34.821200	12.496029	-19.993654	
4.7700	-41.021346	-8.498936	11.328902	-89.417875	792.074010	-3.775162	7.717000	-45.000000	45.000000	-45.000000	-19.294365	3510.524760	-1371.681999	32.506086	34.876222	1809.274678	381.105370	16.434763	14.037615	16.964247	43.404838	-45.000000	-43.555770	-24.926860	-2800.687569	786.745714	30.014299	13.387945	1443.406468	35.460253	12.480616	-20.009613	
